ffmpeg started on 2026-04-01 at 13:20:33
Report written to "D:\Convert\FFMetrics\reports\ssim_report-6.txt"
Log level: 32
Command line:
ffmpeg -hide_banner -nostdin -r 24000/1001 -i "F:\\Convert\\files\\[DC] Make Heroine ga Oosugiru - 07_Telegram_HEVC(302).mkv" -r 24000/1001 -i "F:\\Convert\\files\\[DC] Make Heroine ga Oosugiru - 07_Telegram.mp4" -lavfi "[0:v]settb=AVTB,setpts=PTS-STARTPTS,format=pix_fmts=yuv420p10le,fps=24000/1001,scale=1920:1080:flags=lanczos:param0=3:out_range=limited:out_color_matrix=bt709:out_chroma_loc=left,setsar=1/1,setdar=(1920/1080)*(1/1),colorspace=format=yuv420p10:range=tv:primaries=bt709:trc=bt709:space=bt709:fast=0[main];[1:v]settb=AVTB,setpts=PTS-STARTPTS,format=pix_fmts=yuv420p,fps=24000/1001,scale=1920:1080:flags=lanczos:param0=3:out_range=limited:out_color_matrix=bt709:out_chroma_loc=left,setsar=1/1,setdar=(1920/1080)*(1/1),colorspace=format=yuv420p:range=tv:primaries=bt709:trc=bt709:space=bt709:fast=0[ref];[main][ref]ssim=eof_action=endall:stats_file='D\\:/Convert/FFMetrics/logs/ssim_logfile-6.txt'" -f null -
Input #0, matroska,webm, from 'F:\Convert\files\[DC] Make Heroine ga Oosugiru - 07_Telegram_HEVC(302).mkv':
  Metadata:
    COMPATIBLE_BRANDS: isomiso2avc1mp41
    MAJOR_BRAND     : isom
    MINOR_VERSION   : 512
    ENCODER         : Lavf61.7.100
  Duration: 00:24:06.79, start: -0.021000, bitrate: 961 kb/s
  Stream #0:0: Video: hevc (Main 10), yuv420p10le(tv, bt709, progressive), 1920x1080 [SAR 1:1 DAR 16:9], 23.98 fps, 23.98 tbr, 1k tbn (default)
      Metadata:
        HANDLER_NAME    : VideoHandler
        VENDOR_ID       : [0][0][0][0]
        ENCODER         : Lavc61.19.100 libx265
        BPS             : 764545
        DURATION        : 00:24:06.569708333
        NUMBER_OF_FRAMES: 34683
        NUMBER_OF_BYTES : 138245907
        _STATISTICS_WRITING_APP: mkvpropedit v94.0 ('Initiate') 64-bit
        _STATISTICS_WRITING_DATE_UTC: 2026-03-31 09:32:14
        _STATISTICS_TAGS: BPS DURATION NUMBER_OF_FRAMES NUMBER_OF_BYTES
  Stream #0:1: Audio: aac (LC), 48000 Hz, stereo, fltp (default)
      Metadata:
        HANDLER_NAME    : SoundHandler
        VENDOR_ID       : [0][0][0][0]
        ENCODER         : Lavc61.19.100 aac
        BPS             : 193194
        DURATION        : 00:24:06.784000000
        NUMBER_OF_FRAMES: 67819
        NUMBER_OF_BYTES : 34938755
        _STATISTICS_WRITING_APP: mkvpropedit v94.0 ('Initiate') 64-bit
        _STATISTICS_WRITING_DATE_UTC: 2026-03-31 09:32:14
        _STATISTICS_TAGS: BPS DURATION NUMBER_OF_FRAMES NUMBER_OF_BYTES
Input #1, mov,mp4,m4a,3gp,3g2,mj2, from 'F:\Convert\files\[DC] Make Heroine ga Oosugiru - 07_Telegram.mp4':
  Metadata:
    major_brand     : isom
    minor_version   : 512
    compatible_brands: isomiso2avc1mp41
    encoder         : Lavf60.16.100
  Duration: 00:24:06.74, start: 0.000000, bitrate: 3764 kb/s
  Stream #1:0[0x1](und): Video: h264 (High) (avc1 / 0x31637661), yuv420p(tv, bt709, progressive), 1920x1080 [SAR 1:1 DAR 16:9], 3616 kb/s, 23.98 fps, 23.98 tbr, 24k tbn (default)
      Metadata:
        handler_name    : VideoHandler
        vendor_id       : [0][0][0][0]
        encoder         : Lavc60.31.102 h264_qsv
  Stream #1:1[0x2](und): Audio: aac (HE-AACv2) (mp4a / 0x6134706D), 48000 Hz, stereo, fltp, 144 kb/s (default)
      Metadata:
        handler_name    : SoundHandler
        vendor_id       : [0][0][0][0]
Stream mapping:
  Stream #0:0 (hevc) -> settb:default
  Stream #1:0 (h264) -> settb:default
  ssim:default -> Stream #0:0 (wrapped_avframe)
  Stream #0:1 -> #0:1 (aac (native) -> pcm_s16le (native))
Output #0, null, to 'pipe:':
  Metadata:
    COMPATIBLE_BRANDS: isomiso2avc1mp41
    MAJOR_BRAND     : isom
    MINOR_VERSION   : 512
    encoder         : Lavf61.7.100
  Stream #0:0: Video: wrapped_avframe, yuv420p10le(tv, bt709, progressive), 1920x1080 [SAR 1:1 DAR 16:9], q=2-31, 200 kb/s, 23.98 fps, 23.98 tbn
      Metadata:
        encoder         : Lavc61.19.100 wrapped_avframe
  Stream #0:1: Audio: pcm_s16le, 48000 Hz, stereo, s16, 1536 kb/s (default)
      Metadata:
        HANDLER_NAME    : SoundHandler
        VENDOR_ID       : [0][0][0][0]
        _STATISTICS_TAGS: BPS DURATION NUMBER_OF_FRAMES NUMBER_OF_BYTES
        BPS             : 193194
        DURATION        : 00:24:06.784000000
        NUMBER_OF_FRAMES: 67819
        NUMBER_OF_BYTES : 34938755
        _STATISTICS_WRITING_APP: mkvpropedit v94.0 ('Initiate') 64-bit
        _STATISTICS_WRITING_DATE_UTC: 2026-03-31 09:32:14
        encoder         : Lavc61.19.100 pcm_s16le
frame=  113 fps=0.0 q=-0.0 size=N/A time=00:00:04.71 bitrate=N/A speed=9.18x    frame=  311 fps=299 q=-0.0 size=N/A time=00:00:12.97 bitrate=N/A speed=12.5x    frame=  504 fps=325 q=-0.0 size=N/A time=00:00:21.02 bitrate=N/A speed=13.6x    frame=  698 fps=338 q=-0.0 size=N/A time=00:00:29.11 bitrate=N/A speed=14.1x    frame=  889 fps=345 q=-0.0 size=N/A time=00:00:37.07 bitrate=N/A speed=14.4x    frame= 1040 fps=335 q=-0.0 size=N/A time=00:00:43.37 bitrate=N/A speed=  14x    frame= 1208 fps=333 q=-0.0 size=N/A time=00:00:50.38 bitrate=N/A speed=13.9x    frame= 1373 fps=332 q=-0.0 size=N/A time=00:00:57.26 bitrate=N/A speed=13.8x    frame= 1529 fps=329 q=-0.0 size=N/A time=00:01:03.77 bitrate=N/A speed=13.7x    frame= 1680 fps=324 q=-0.0 size=N/A time=00:01:10.07 bitrate=N/A speed=13.5x    frame= 1854 fps=326 q=-0.0 size=N/A time=00:01:17.32 bitrate=N/A speed=13.6x    frame= 2029 fps=327 q=-0.0 size=N/A time=00:01:24.62 bitrate=N/A speed=13.6x    frame= 2138 fps=318 q=-0.0 size=N/A time=00:01:29.17 bitrate=N/A speed=13.3x    frame= 2301 fps=318 q=-0.0 size=N/A time=00:01:35.97 bitrate=N/A speed=13.3x    frame= 2448 fps=316 q=-0.0 size=N/A time=00:01:42.10 bitrate=N/A speed=13.2x    frame= 2586 fps=313 q=-0.0 size=N/A time=00:01:47.85 bitrate=N/A speed=13.1x    frame= 2761 fps=315 q=-0.0 size=N/A time=00:01:55.15 bitrate=N/A speed=13.1x    frame= 2948 fps=317 q=-0.0 size=N/A time=00:02:02.95 bitrate=N/A speed=13.2x    frame= 3142 fps=320 q=-0.0 size=N/A time=00:02:11.04 bitrate=N/A speed=13.3x    frame= 3319 fps=321 q=-0.0 size=N/A time=00:02:18.42 bitrate=N/A speed=13.4x    frame= 3516 fps=324 q=-0.0 size=N/A time=00:02:26.64 bitrate=N/A speed=13.5x    frame= 3719 fps=327 q=-0.0 size=N/A time=00:02:35.11 bitrate=N/A speed=13.6x    frame= 3915 fps=330 q=-0.0 size=N/A time=00:02:43.28 bitrate=N/A speed=13.8x    frame= 4112 fps=332 q=-0.0 size=N/A time=00:02:51.50 bitrate=N/A speed=13.8x    frame= 4307 fps=334 q=-0.0 size=N/A time=00:02:59.63 bitrate=N/A speed=13.9x    frame= 4507 fps=336 q=-0.0 size=N/A time=00:03:07.97 bitrate=N/A speed=  14x    frame= 4708 fps=338 q=-0.0 size=N/A time=00:03:16.36 bitrate=N/A speed=14.1x    frame= 4907 fps=339 q=-0.0 size=N/A time=00:03:24.66 bitrate=N/A speed=14.2x    frame= 5104 fps=341 q=-0.0 size=N/A time=00:03:32.87 bitrate=N/A speed=14.2x    frame= 5292 fps=342 q=-0.0 size=N/A time=00:03:40.72 bitrate=N/A speed=14.3x    frame= 5486 fps=343 q=-0.0 size=N/A time=00:03:48.81 bitrate=N/A speed=14.3x    frame= 5697 fps=345 q=-0.0 size=N/A time=00:03:57.61 bitrate=N/A speed=14.4x    frame= 5893 fps=346 q=-0.0 size=N/A time=00:04:05.78 bitrate=N/A speed=14.4x    frame= 6088 fps=347 q=-0.0 size=N/A time=00:04:13.92 bitrate=N/A speed=14.5x    frame= 6282 fps=348 q=-0.0 size=N/A time=00:04:22.01 bitrate=N/A speed=14.5x    frame= 6485 fps=349 q=-0.0 size=N/A time=00:04:30.47 bitrate=N/A speed=14.6x    frame= 6681 fps=350 q=-0.0 size=N/A time=00:04:38.65 bitrate=N/A speed=14.6x    frame= 6870 fps=350 q=-0.0 size=N/A time=00:04:46.53 bitrate=N/A speed=14.6x    frame= 7066 fps=351 q=-0.0 size=N/A time=00:04:54.71 bitrate=N/A speed=14.6x    frame= 7260 fps=352 q=-0.0 size=N/A time=00:05:02.80 bitrate=N/A speed=14.7x    frame= 7452 fps=352 q=-0.0 size=N/A time=00:05:10.81 bitrate=N/A speed=14.7x    frame= 7629 fps=352 q=-0.0 size=N/A time=00:05:18.19 bitrate=N/A speed=14.7x    frame= 7813 fps=352 q=-0.0 size=N/A time=00:05:25.86 bitrate=N/A speed=14.7x    frame= 8008 fps=353 q=-0.0 size=N/A time=00:05:34.00 bitrate=N/A speed=14.7x    frame= 8207 fps=353 q=-0.0 size=N/A time=00:05:42.30 bitrate=N/A speed=14.7x    frame= 8377 fps=353 q=-0.0 size=N/A time=00:05:49.39 bitrate=N/A speed=14.7x    frame= 8562 fps=353 q=-0.0 size=N/A time=00:05:57.10 bitrate=N/A speed=14.7x    frame= 8758 fps=354 q=-0.0 size=N/A time=00:06:05.28 bitrate=N/A speed=14.7x    frame= 8958 fps=354 q=-0.0 size=N/A time=00:06:13.62 bitrate=N/A speed=14.8x    frame= 9149 fps=355 q=-0.0 size=N/A time=00:06:21.58 bitrate=N/A speed=14.8x    frame= 9343 fps=355 q=-0.0 size=N/A time=00:06:29.68 bitrate=N/A speed=14.8x    frame= 9539 fps=356 q=-0.0 size=N/A time=00:06:37.85 bitrate=N/A speed=14.8x    frame= 9734 fps=356 q=-0.0 size=N/A time=00:06:45.98 bitrate=N/A speed=14.8x    frame= 9936 fps=357 q=-0.0 size=N/A time=00:06:54.41 bitrate=N/A speed=14.9x    frame=10129 fps=357 q=-0.0 size=N/A time=00:07:02.46 bitrate=N/A speed=14.9x    frame=10319 fps=357 q=-0.0 size=N/A time=00:07:10.38 bitrate=N/A speed=14.9x    frame=10515 fps=358 q=-0.0 size=N/A time=00:07:18.56 bitrate=N/A speed=14.9x    frame=10706 fps=358 q=-0.0 size=N/A time=00:07:26.52 bitrate=N/A speed=14.9x    frame=10899 fps=358 q=-0.0 size=N/A time=00:07:34.57 bitrate=N/A speed=14.9x    frame=11082 fps=358 q=-0.0 size=N/A time=00:07:42.21 bitrate=N/A speed=14.9x    frame=11280 fps=358 q=-0.0 size=N/A time=00:07:50.47 bitrate=N/A speed=14.9x    frame=11471 fps=359 q=-0.0 size=N/A time=00:07:58.43 bitrate=N/A speed=  15x    frame=11667 fps=359 q=-0.0 size=N/A time=00:08:06.61 bitrate=N/A speed=  15x    frame=11844 fps=359 q=-0.0 size=N/A time=00:08:13.99 bitrate=N/A speed=  15x    frame=12041 fps=359 q=-0.0 size=N/A time=00:08:22.21 bitrate=N/A speed=  15x    frame=12234 fps=359 q=-0.0 size=N/A time=00:08:30.25 bitrate=N/A speed=  15x    frame=12423 fps=359 q=-0.0 size=N/A time=00:08:38.14 bitrate=N/A speed=  15x    frame=12617 fps=360 q=-0.0 size=N/A time=00:08:46.23 bitrate=N/A speed=  15x    frame=12814 fps=360 q=-0.0 size=N/A time=00:08:54.45 bitrate=N/A speed=  15x    frame=13019 fps=360 q=-0.0 size=N/A time=00:09:03.00 bitrate=N/A speed=  15x    frame=13210 fps=361 q=-0.0 size=N/A time=00:09:10.96 bitrate=N/A speed=  15x    frame=13399 fps=361 q=-0.0 size=N/A time=00:09:18.84 bitrate=N/A speed=  15x    frame=13595 fps=361 q=-0.0 size=N/A time=00:09:27.02 bitrate=N/A speed=15.1x    frame=13789 fps=361 q=-0.0 size=N/A time=00:09:35.11 bitrate=N/A speed=15.1x    frame=13973 fps=361 q=-0.0 size=N/A time=00:09:42.79 bitrate=N/A speed=15.1x    frame=14152 fps=361 q=-0.0 size=N/A time=00:09:50.25 bitrate=N/A speed=15.1x    frame=14344 fps=361 q=-0.0 size=N/A time=00:09:58.26 bitrate=N/A speed=15.1x    frame=14540 fps=361 q=-0.0 size=N/A time=00:10:06.43 bitrate=N/A speed=15.1x    frame=14731 fps=362 q=-0.0 size=N/A time=00:10:14.40 bitrate=N/A speed=15.1x    frame=14924 fps=362 q=-0.0 size=N/A time=00:10:22.45 bitrate=N/A speed=15.1x    frame=15112 fps=362 q=-0.0 size=N/A time=00:10:30.29 bitrate=N/A speed=15.1x    frame=15289 fps=361 q=-0.0 size=N/A time=00:10:37.67 bitrate=N/A speed=15.1x    frame=15475 fps=361 q=-0.0 size=N/A time=00:10:45.43 bitrate=N/A speed=15.1x    frame=15666 fps=362 q=-0.0 size=N/A time=00:10:53.40 bitrate=N/A speed=15.1x    frame=15853 fps=362 q=-0.0 size=N/A time=00:11:01.20 bitrate=N/A speed=15.1x    frame=16050 fps=362 q=-0.0 size=N/A time=00:11:09.41 bitrate=N/A speed=15.1x    frame=16236 fps=362 q=-0.0 size=N/A time=00:11:17.21 bitrate=N/A speed=15.1x    frame=16429 fps=362 q=-0.0 size=N/A time=00:11:25.22 bitrate=N/A speed=15.1x    frame=16614 fps=362 q=-0.0 size=N/A time=00:11:32.94 bitrate=N/A speed=15.1x    frame=16819 fps=362 q=-0.0 size=N/A time=00:11:41.49 bitrate=N/A speed=15.1x    frame=17011 fps=362 q=-0.0 size=N/A time=00:11:49.50 bitrate=N/A speed=15.1x    frame=17216 fps=363 q=-0.0 size=N/A time=00:11:58.05 bitrate=N/A speed=15.1x    frame=17414 fps=363 q=-0.0 size=N/A time=00:12:06.30 bitrate=N/A speed=15.1x    frame=17606 fps=363 q=-0.0 size=N/A time=00:12:14.31 bitrate=N/A speed=15.1x    frame=17793 fps=363 q=-0.0 size=N/A time=00:12:22.11 bitrate=N/A speed=15.1x    frame=17967 fps=363 q=-0.0 size=N/A time=00:12:29.37 bitrate=N/A speed=15.1x    frame=18167 fps=363 q=-0.0 size=N/A time=00:12:37.71 bitrate=N/A speed=15.1x    frame=18350 fps=363 q=-0.0 size=N/A time=00:12:45.34 bitrate=N/A speed=15.1x    frame=18544 fps=363 q=-0.0 size=N/A time=00:12:53.43 bitrate=N/A speed=15.1x    frame=18741 fps=363 q=-0.0 size=N/A time=00:13:01.65 bitrate=N/A speed=15.2x    frame=18941 fps=364 q=-0.0 size=N/A time=00:13:09.99 bitrate=N/A speed=15.2x    frame=19132 fps=364 q=-0.0 size=N/A time=00:13:17.96 bitrate=N/A speed=15.2x    frame=19340 fps=364 q=-0.0 size=N/A time=00:13:26.63 bitrate=N/A speed=15.2x    frame=19530 fps=364 q=-0.0 size=N/A time=00:13:34.56 bitrate=N/A speed=15.2x    frame=19715 fps=364 q=-0.0 size=N/A time=00:13:42.27 bitrate=N/A speed=15.2x    frame=19925 fps=364 q=-0.0 size=N/A time=00:13:51.03 bitrate=N/A speed=15.2x    frame=20119 fps=365 q=-0.0 size=N/A time=00:13:59.12 bitrate=N/A speed=15.2x    frame=20315 fps=365 q=-0.0 size=N/A time=00:14:07.30 bitrate=N/A speed=15.2x    frame=20499 fps=365 q=-0.0 size=N/A time=00:14:14.97 bitrate=N/A speed=15.2x    frame=20656 fps=364 q=-0.0 size=N/A time=00:14:21.52 bitrate=N/A speed=15.2x    frame=20864 fps=364 q=-0.0 size=N/A time=00:14:30.20 bitrate=N/A speed=15.2x    frame=21053 fps=364 q=-0.0 size=N/A time=00:14:38.08 bitrate=N/A speed=15.2x    frame=21250 fps=365 q=-0.0 size=N/A time=00:14:46.30 bitrate=N/A speed=15.2x    frame=21441 fps=365 q=-0.0 size=N/A time=00:14:54.26 bitrate=N/A speed=15.2x    frame=21643 fps=365 q=-0.0 size=N/A time=00:15:02.69 bitrate=N/A speed=15.2x    frame=21836 fps=365 q=-0.0 size=N/A time=00:15:10.74 bitrate=N/A speed=15.2x    frame=22036 fps=365 q=-0.0 size=N/A time=00:15:19.08 bitrate=N/A speed=15.2x    frame=22231 fps=365 q=-0.0 size=N/A time=00:15:27.21 bitrate=N/A speed=15.2x    frame=22429 fps=365 q=-0.0 size=N/A time=00:15:35.47 bitrate=N/A speed=15.2x    frame=22616 fps=365 q=-0.0 size=N/A time=00:15:43.27 bitrate=N/A speed=15.2x    frame=22795 fps=365 q=-0.0 size=N/A time=00:15:50.74 bitrate=N/A speed=15.2x    frame=22970 fps=365 q=-0.0 size=N/A time=00:15:58.04 bitrate=N/A speed=15.2x    frame=23116 fps=364 q=-0.0 size=N/A time=00:16:04.12 bitrate=N/A speed=15.2x    frame=23288 fps=364 q=-0.0 size=N/A time=00:16:11.30 bitrate=N/A speed=15.2x    frame=23482 fps=364 q=-0.0 size=N/A time=00:16:19.39 bitrate=N/A speed=15.2x    frame=23656 fps=364 q=-0.0 size=N/A time=00:16:26.65 bitrate=N/A speed=15.2x    frame=23838 fps=364 q=-0.0 size=N/A time=00:16:34.24 bitrate=N/A speed=15.2x    frame=24029 fps=364 q=-0.0 size=N/A time=00:16:42.20 bitrate=N/A speed=15.2x    frame=24206 fps=364 q=-0.0 size=N/A time=00:16:49.59 bitrate=N/A speed=15.2x    frame=24392 fps=364 q=-0.0 size=N/A time=00:16:57.34 bitrate=N/A speed=15.2x    frame=24589 fps=364 q=-0.0 size=N/A time=00:17:05.56 bitrate=N/A speed=15.2x    frame=24780 fps=364 q=-0.0 size=N/A time=00:17:13.53 bitrate=N/A speed=15.2x    frame=24972 fps=364 q=-0.0 size=N/A time=00:17:21.54 bitrate=N/A speed=15.2x    frame=25169 fps=364 q=-0.0 size=N/A time=00:17:29.75 bitrate=N/A speed=15.2x    frame=25366 fps=364 q=-0.0 size=N/A time=00:17:37.97 bitrate=N/A speed=15.2x    frame=25554 fps=364 q=-0.0 size=N/A time=00:17:45.81 bitrate=N/A speed=15.2x    frame=25750 fps=364 q=-0.0 size=N/A time=00:17:53.98 bitrate=N/A speed=15.2x    frame=25945 fps=365 q=-0.0 size=N/A time=00:18:02.12 bitrate=N/A speed=15.2x    frame=26131 fps=365 q=-0.0 size=N/A time=00:18:09.88 bitrate=N/A speed=15.2x    frame=26335 fps=365 q=-0.0 size=N/A time=00:18:18.38 bitrate=N/A speed=15.2x    frame=26526 fps=365 q=-0.0 size=N/A time=00:18:26.35 bitrate=N/A speed=15.2x    frame=26721 fps=365 q=-0.0 size=N/A time=00:18:34.48 bitrate=N/A speed=15.2x    frame=26908 fps=365 q=-0.0 size=N/A time=00:18:42.28 bitrate=N/A speed=15.2x    frame=27084 fps=365 q=-0.0 size=N/A time=00:18:49.62 bitrate=N/A speed=15.2x    frame=27277 fps=365 q=-0.0 size=N/A time=00:18:57.67 bitrate=N/A speed=15.2x    frame=27467 fps=365 q=-0.0 size=N/A time=00:19:05.60 bitrate=N/A speed=15.2x    frame=27658 fps=365 q=-0.0 size=N/A time=00:19:13.56 bitrate=N/A speed=15.2x    frame=27842 fps=365 q=-0.0 size=N/A time=00:19:21.24 bitrate=N/A speed=15.2x    frame=28035 fps=365 q=-0.0 size=N/A time=00:19:29.29 bitrate=N/A speed=15.2x    frame=28233 fps=365 q=-0.0 size=N/A time=00:19:37.55 bitrate=N/A speed=15.2x    frame=28415 fps=365 q=-0.0 size=N/A time=00:19:45.14 bitrate=N/A speed=15.2x    frame=28583 fps=365 q=-0.0 size=N/A time=00:19:52.14 bitrate=N/A speed=15.2x    frame=28766 fps=365 q=-0.0 size=N/A time=00:19:59.78 bitrate=N/A speed=15.2x    frame=28942 fps=364 q=-0.0 size=N/A time=00:20:07.12 bitrate=N/A speed=15.2x    frame=29112 fps=364 q=-0.0 size=N/A time=00:20:14.21 bitrate=N/A speed=15.2x    frame=29286 fps=364 q=-0.0 size=N/A time=00:20:21.47 bitrate=N/A speed=15.2x    frame=29464 fps=364 q=-0.0 size=N/A time=00:20:28.89 bitrate=N/A speed=15.2x    frame=29650 fps=364 q=-0.0 size=N/A time=00:20:36.65 bitrate=N/A speed=15.2x    frame=29825 fps=364 q=-0.0 size=N/A time=00:20:43.95 bitrate=N/A speed=15.2x    frame=29994 fps=363 q=-0.0 size=N/A time=00:20:50.99 bitrate=N/A speed=15.2x    frame=30167 fps=363 q=-0.0 size=N/A time=00:20:58.21 bitrate=N/A speed=15.1x    frame=30349 fps=363 q=-0.0 size=N/A time=00:21:05.80 bitrate=N/A speed=15.1x    frame=30534 fps=363 q=-0.0 size=N/A time=00:21:13.52 bitrate=N/A speed=15.1x    frame=30687 fps=363 q=-0.0 size=N/A time=00:21:19.90 bitrate=N/A speed=15.1x    frame=30873 fps=363 q=-0.0 size=N/A time=00:21:27.66 bitrate=N/A speed=15.1x    frame=31047 fps=363 q=-0.0 size=N/A time=00:21:34.91 bitrate=N/A speed=15.1x    frame=31211 fps=362 q=-0.0 size=N/A time=00:21:41.75 bitrate=N/A speed=15.1x    frame=31391 fps=362 q=-0.0 size=N/A time=00:21:49.26 bitrate=N/A speed=15.1x    frame=31561 fps=362 q=-0.0 size=N/A time=00:21:56.35 bitrate=N/A speed=15.1x    frame=31739 fps=362 q=-0.0 size=N/A time=00:22:03.78 bitrate=N/A speed=15.1x    frame=31904 fps=362 q=-0.0 size=N/A time=00:22:10.66 bitrate=N/A speed=15.1x    frame=32084 fps=362 q=-0.0 size=N/A time=00:22:18.17 bitrate=N/A speed=15.1x    frame=32260 fps=362 q=-0.0 size=N/A time=00:22:25.51 bitrate=N/A speed=15.1x    frame=32435 fps=361 q=-0.0 size=N/A time=00:22:32.80 bitrate=N/A speed=15.1x    frame=32619 fps=361 q=-0.0 size=N/A time=00:22:40.48 bitrate=N/A speed=15.1x    frame=32771 fps=361 q=-0.0 size=N/A time=00:22:46.82 bitrate=N/A speed=15.1x    frame=32939 fps=361 q=-0.0 size=N/A time=00:22:53.83 bitrate=N/A speed=  15x    frame=33126 fps=361 q=-0.0 size=N/A time=00:23:01.63 bitrate=N/A speed=  15x    frame=33303 fps=361 q=-0.0 size=N/A time=00:23:09.01 bitrate=N/A speed=  15x    frame=33478 fps=361 q=-0.0 size=N/A time=00:23:16.31 bitrate=N/A speed=  15x    frame=33629 fps=360 q=-0.0 size=N/A time=00:23:22.60 bitrate=N/A speed=  15x    frame=33769 fps=360 q=-0.0 size=N/A time=00:23:28.44 bitrate=N/A speed=  15x    frame=33899 fps=359 q=-0.0 size=N/A time=00:23:33.87 bitrate=N/A speed=  15x    frame=34063 fps=359 q=-0.0 size=N/A time=00:23:40.71 bitrate=N/A speed=  15x    frame=34224 fps=359 q=-0.0 size=N/A time=00:23:47.42 bitrate=N/A speed=  15x    frame=34356 fps=358 q=-0.0 size=N/A time=00:23:52.93 bitrate=N/A speed=14.9x    frame=34495 fps=358 q=-0.0 size=N/A time=00:23:58.72 bitrate=N/A speed=14.9x    [Parsed_ssim_16 @ 000002d06942fa00] SSIM Y:0.994200 (22.365802) U:0.994297 (22.439315) V:0.993944 (22.178437) All:0.994174 (22.346085)
[out#0/null @ 000002d05c6fdec0] video:14903KiB audio:271276KiB subtitle:0KiB other streams:0KiB global headers:0KiB muxing overhead: unknown
frame=34683 fps=358 q=-0.0 Lsize=N/A time=00:24:06.57 bitrate=N/A speed=14.9x    
